<?xml version="1.0" standalone="no"?>
<!DOCTYPE svg PUBLIC "-//W3C//DTD SVG 20010904//EN"
 "http://www.w3.org/TR/2001/REC-SVG-20010904/DTD/svg10.dtd">
<svg version="1.0" xmlns="http://www.w3.org/2000/svg"
 width="500.000000pt" height="500.000000pt" viewBox="0 0 500.000000 500.000000"
 preserveAspectRatio="xMidYMid meet">

<g transform="translate(0.000000,500.000000) scale(0.100000,-0.100000)"
fill="#fff" stroke="none">
<path d="M1260 2625 l0 -235 153 0 c170 0 214 8 260 50 28 25 32 34 32 80 0
48 -3 55 -38 85 -34 29 -36 34 -21 46 26 22 44 74 38 109 -8 37 -51 76 -102
90 -20 5 -101 10 -179 10 l-143 0 0 -235z m278 123 c7 -7 12 -22 12 -35 0 -30
-37 -45 -104 -41 l-51 3 -3 43 -3 42 68 0 c40 0 74 -5 81 -12z m20 -180 c7 -7
12 -21 12 -33 0 -36 -20 -45 -102 -45 l-78 0 0 45 0 45 78 0 c47 0 83 -5 90
-12z"/>
<path d="M1840 2625 l0 -235 65 0 65 0 0 60 0 60 39 0 c36 0 41 -4 77 -60 l39
-60 73 0 73 0 -50 71 -50 71 34 32 c39 37 55 72 55 122 0 75 -53 143 -128 164
-20 5 -94 10 -164 10 l-128 0 0 -235z m263 113 c27 -22 31 -61 7 -91 -19 -24
-28 -27 -81 -27 l-59 0 0 65 0 65 58 0 c32 0 66 -6 75 -12z"/>
<path d="M2390 2625 l0 -235 65 0 64 0 3 122 3 123 103 -123 103 -122 55 0 54
0 0 235 0 235 -65 0 -64 0 -3 -122 -3 -123 -100 122 -100 121 -57 1 -58 1 0
-235z"/>
<path d="M1217 2223 c-4 -3 -7 -30 -7 -60 l0 -53 745 0 745 0 0 60 0 60 -738
0 c-406 0 -742 -3 -745 -7z"/>
<path d="M2793 2223 c13 -3 17 -15 17 -49 0 -24 5 -44 10 -44 6 0 10 20 10 44
0 34 4 46 18 49 9 3 -3 5 -28 5 -25 0 -37 -2 -27 -5z"/>
<path d="M2920 2180 l0 -50 38 1 c36 1 36 2 7 8 -36 8 -39 32 -5 42 l25 7 -27
1 c-40 1 -36 29 5 34 31 4 31 4 -5 5 l-38 2 0 -50z"/>
<path d="M3062 2218 c-7 -7 -12 -24 -12 -38 0 -14 5 -31 12 -38 14 -14 64 -16
72 -3 3 5 -8 8 -25 7 -20 0 -35 5 -43 17 -17 26 5 52 43 51 17 -1 28 2 25 7
-8 13 -58 11 -72 -3z"/>
<path d="M3202 2180 c0 -37 2 -47 7 -30 5 18 15 26 34 28 23 3 27 0 27 -22 0
-14 5 -26 10 -26 6 0 10 23 10 50 0 28 -4 50 -10 50 -5 0 -10 -9 -10 -20 0
-31 -57 -28 -63 3 -2 12 -4 -3 -5 -33z"/>
<path d="M3362 2180 c1 -51 1 -52 7 -16 l6 40 28 -37 c15 -20 32 -37 38 -37 5
0 9 23 9 50 0 28 -4 50 -10 50 -5 0 -10 -16 -10 -35 l0 -35 -35 38 -34 37 1
-55z"/>
<path d="M3522 2218 c-7 -7 -12 -24 -12 -38 0 -33 17 -50 50 -50 33 0 50 17
50 50 0 33 -17 50 -50 50 -14 0 -31 -5 -38 -12z m66 -10 c32 -32 -18 -87 -53
-58 -28 23 -12 70 25 70 9 0 21 -5 28 -12z"/>
<path d="M3682 2183 l-2 -53 38 2 c36 1 36 1 5 5 -30 4 -32 7 -36 51 l-3 47
-2 -52z"/>
<path d="M3798 2205 c-9 -19 -8 -29 6 -50 28 -43 96 -27 96 23 0 37 -17 52
-57 52 -26 0 -36 -6 -45 -25z m82 0 c27 -32 -23 -82 -55 -55 -15 13 -20 51 -8
63 12 12 50 7 63 -8z"/>
<path d="M3958 2205 c-17 -38 13 -77 55 -73 24 2 33 8 35 26 4 27 -14 29 -21
2 -11 -41 -61 -12 -55 32 2 19 9 23 36 23 17 0 32 3 32 7 0 5 -16 8 -35 8 -28
0 -38 -5 -47 -25z"/>
<path d="M4119 2196 c12 -18 21 -42 22 -52 0 -14 3 -12 9 7 4 14 15 38 25 52
9 15 13 27 8 27 -5 0 -15 -12 -22 -27 l-13 -27 -16 27 c-9 15 -20 27 -25 27
-5 0 1 -15 12 -34z"/>
</g>
</svg>
